<svg xmlns="http://www.w3.org/2000/svg" xmlns:xlink="http://www.w3.org/1999/xlink" width="100" zoomAndPan="magnify" viewBox="0 0 75 74.999997" height="100" preserveAspectRatio="xMidYMid meet" version="1.0"><defs><clipPath id="f319970ea7"><path d="M 2.808594 2.808594 L 72.191406 2.808594 L 72.191406 72.191406 L 2.808594 72.191406 Z M 2.808594 2.808594 " clip-rule="nonzero"/></clipPath><clipPath id="cc04e36c5f"><path d="M 37.5 2.808594 C 18.339844 2.808594 2.808594 18.339844 2.808594 37.5 C 2.808594 56.660156 18.339844 72.191406 37.5 72.191406 C 56.660156 72.191406 72.191406 56.660156 72.191406 37.5 C 72.191406 18.339844 56.660156 2.808594 37.5 2.808594 " clip-rule="nonzero"/></clipPath></defs><g clip-path="url(#f319970ea7)"><g clip-path="url(#cc04e36c5f)"><path fill="#ffffff" d="M 2.808594 2.808594 L 72.191406 2.808594 L 72.191406 72.191406 L 2.808594 72.191406 Z M 2.808594 2.808594 " fill-opacity="1" fill-rule="nonzero"/></g></g><path fill="#ff6666" d="M 37.5 29.1875 C 32.921875 29.1875 29.1875 32.921875 29.1875 37.5 C 29.1875 42.078125 32.921875 45.8125 37.5 45.8125 C 42.078125 45.8125 45.8125 42.078125 45.8125 37.5 C 45.8125 32.921875 42.078125 29.1875 37.5 29.1875 Z M 37.5 29.1875 " fill-opacity="1" fill-rule="nonzero"/><path fill="#ff6666" d="M 48.667969 17.109375 L 26.332031 17.109375 C 21.265625 17.109375 17.109375 21.234375 17.109375 26.332031 L 17.109375 48.667969 C 17.109375 53.734375 21.234375 57.890625 26.332031 57.890625 L 48.667969 57.890625 C 53.734375 57.890625 57.890625 53.765625 57.890625 48.667969 L 57.890625 26.332031 C 57.855469 21.234375 53.734375 17.109375 48.667969 17.109375 Z M 37.5 50 C 30.585938 50 24.96875 44.382812 24.96875 37.46875 C 24.96875 30.550781 30.585938 24.933594 37.5 24.933594 C 44.414062 24.933594 50.03125 30.550781 50.03125 37.46875 C 50 44.382812 44.382812 50 37.5 50 Z M 50.910156 27.046875 C 49.253906 27.046875 47.890625 25.683594 47.890625 24.027344 C 47.890625 22.371094 49.253906 21.007812 50.910156 21.007812 C 52.566406 21.007812 53.929688 22.371094 53.929688 24.027344 C 53.929688 25.714844 52.597656 27.046875 50.910156 27.046875 Z M 50.910156 27.046875 " fill-opacity="1" fill-rule="nonzero"/><path fill="#ff6666" d="M 37.5 0 C 16.785156 0 0 16.785156 0 37.5 C 0 58.214844 16.785156 75 37.5 75 C 58.214844 75 75 58.214844 75 37.5 C 74.96875 16.785156 58.183594 0 37.5 0 Z M 62.078125 48.667969 C 62.078125 56.070312 56.039062 62.109375 48.636719 62.109375 L 26.332031 62.109375 C 18.929688 62.109375 12.890625 56.070312 12.890625 48.667969 L 12.890625 26.332031 C 12.890625 18.929688 18.929688 12.890625 26.332031 12.890625 L 48.667969 12.890625 C 56.070312 12.890625 62.109375 18.929688 62.109375 26.332031 L 62.109375 48.667969 Z M 62.078125 48.667969 " fill-opacity="1" fill-rule="nonzero"/></svg>