<svg xmlns="http://www.w3.org/2000/svg" xmlns:xlink="http://www.w3.org/1999/xlink" width="100" zoomAndPan="magnify" viewBox="0 0 75 74.999997" height="100" preserveAspectRatio="xMidYMid meet" version="1.0"><defs><clipPath id="67422fe2e8"><path d="M 2.808594 2.808594 L 72.191406 2.808594 L 72.191406 72.191406 L 2.808594 72.191406 Z M 2.808594 2.808594 " clip-rule="nonzero"/></clipPath><clipPath id="4d3c4bc781"><path d="M 37.5 2.808594 C 18.339844 2.808594 2.808594 18.339844 2.808594 37.5 C 2.808594 56.660156 18.339844 72.191406 37.5 72.191406 C 56.660156 72.191406 72.191406 56.660156 72.191406 37.5 C 72.191406 18.339844 56.660156 2.808594 37.5 2.808594 " clip-rule="nonzero"/></clipPath></defs><g clip-path="url(#67422fe2e8)"><g clip-path="url(#4d3c4bc781)"><path fill="#ffffff" d="M 2.808594 2.808594 L 72.191406 2.808594 L 72.191406 72.191406 L 2.808594 72.191406 Z M 2.808594 2.808594 " fill-opacity="1" fill-rule="nonzero"/></g></g><path fill="#ff6666" d="M 75 37.5 C 75 38.730469 74.941406 39.953125 74.820312 41.175781 C 74.699219 42.398438 74.519531 43.613281 74.28125 44.816406 C 74.042969 46.023438 73.742188 47.210938 73.386719 48.386719 C 73.03125 49.5625 72.617188 50.71875 72.148438 51.851562 C 71.675781 52.988281 71.152344 54.097656 70.574219 55.179688 C 69.996094 56.261719 69.363281 57.3125 68.679688 58.335938 C 68 59.355469 67.269531 60.34375 66.488281 61.292969 C 65.710938 62.242188 64.886719 63.148438 64.019531 64.019531 C 63.148438 64.886719 62.242188 65.710938 61.289062 66.488281 C 60.339844 67.269531 59.355469 68 58.335938 68.683594 C 57.3125 69.363281 56.261719 69.996094 55.179688 70.574219 C 54.09375 71.152344 52.988281 71.675781 51.851562 72.148438 C 50.71875 72.617188 49.5625 73.03125 48.386719 73.386719 C 47.210938 73.742188 46.023438 74.042969 44.816406 74.28125 C 43.613281 74.519531 42.398438 74.699219 41.175781 74.820312 C 39.953125 74.941406 38.730469 75 37.5 75 C 36.273438 75 35.046875 74.941406 33.824219 74.820312 C 32.601562 74.699219 31.390625 74.519531 30.183594 74.28125 C 28.980469 74.042969 27.789062 73.742188 26.617188 73.386719 C 25.441406 73.03125 24.285156 72.617188 23.148438 72.148438 C 22.015625 71.675781 20.90625 71.152344 19.824219 70.574219 C 18.742188 69.996094 17.6875 69.363281 16.667969 68.683594 C 15.644531 68 14.660156 67.269531 13.710938 66.488281 C 12.761719 65.710938 11.851562 64.886719 10.984375 64.019531 C 10.117188 63.148438 9.292969 62.242188 8.511719 61.292969 C 7.734375 60.34375 7.003906 59.355469 6.320312 58.335938 C 5.636719 57.3125 5.007812 56.261719 4.429688 55.179688 C 3.851562 54.097656 3.324219 52.988281 2.855469 51.851562 C 2.386719 50.71875 1.972656 49.5625 1.617188 48.386719 C 1.257812 47.210938 0.960938 46.023438 0.722656 44.816406 C 0.480469 43.613281 0.300781 42.398438 0.179688 41.175781 C 0.0625 39.953125 0 38.730469 0 37.5 C 0 36.273438 0.0625 35.046875 0.179688 33.824219 C 0.300781 32.605469 0.480469 31.390625 0.722656 30.1875 C 0.960938 28.980469 1.257812 27.792969 1.617188 26.617188 C 1.972656 25.441406 2.386719 24.285156 2.855469 23.152344 C 3.324219 22.015625 3.851562 20.90625 4.429688 19.824219 C 5.007812 18.742188 5.636719 17.6875 6.320312 16.667969 C 7.003906 15.644531 7.734375 14.660156 8.511719 13.710938 C 9.292969 12.761719 10.117188 11.851562 10.984375 10.984375 C 11.851562 10.117188 12.761719 9.292969 13.710938 8.511719 C 14.660156 7.734375 15.644531 7.003906 16.667969 6.320312 C 17.6875 5.640625 18.742188 5.007812 19.824219 4.429688 C 20.90625 3.851562 22.015625 3.324219 23.148438 2.855469 C 24.285156 2.386719 25.441406 1.972656 26.617188 1.617188 C 27.789062 1.257812 28.980469 0.960938 30.183594 0.722656 C 31.390625 0.480469 32.601562 0.300781 33.824219 0.183594 C 35.046875 0.0625 36.273438 0 37.5 0 C 38.730469 0 39.953125 0.0625 41.175781 0.183594 C 42.398438 0.300781 43.613281 0.480469 44.816406 0.722656 C 46.023438 0.960938 47.210938 1.257812 48.386719 1.617188 C 49.5625 1.972656 50.71875 2.386719 51.851562 2.855469 C 52.988281 3.324219 54.09375 3.851562 55.179688 4.429688 C 56.261719 5.007812 57.3125 5.640625 58.335938 6.320312 C 59.355469 7.003906 60.339844 7.734375 61.289062 8.511719 C 62.242188 9.292969 63.148438 10.117188 64.019531 10.984375 C 64.886719 11.851562 65.710938 12.761719 66.488281 13.710938 C 67.269531 14.660156 68 15.644531 68.679688 16.667969 C 69.363281 17.6875 69.996094 18.742188 70.574219 19.824219 C 71.152344 20.90625 71.675781 22.015625 72.148438 23.152344 C 72.617188 24.285156 73.03125 25.441406 73.386719 26.617188 C 73.742188 27.792969 74.042969 28.980469 74.28125 30.1875 C 74.519531 31.390625 74.699219 32.605469 74.820312 33.824219 C 74.941406 35.046875 75 36.273438 75 37.5 Z M 75 37.5 " fill-opacity="1" fill-rule="nonzero"/><path fill="#ffffff" d="M 28.058594 19.480469 C 28.058594 19.804688 28.027344 20.132812 27.960938 20.453125 C 27.898438 20.773438 27.804688 21.085938 27.679688 21.390625 C 27.550781 21.691406 27.398438 21.980469 27.214844 22.25 C 27.035156 22.523438 26.828125 22.777344 26.597656 23.007812 C 26.363281 23.238281 26.113281 23.445312 25.839844 23.628906 C 25.566406 23.8125 25.28125 23.964844 24.976562 24.089844 C 24.675781 24.214844 24.363281 24.308594 24.039062 24.375 C 23.71875 24.4375 23.394531 24.46875 23.066406 24.46875 C 22.738281 24.46875 22.414062 24.4375 22.09375 24.375 C 21.773438 24.308594 21.460938 24.214844 21.15625 24.089844 C 20.855469 23.964844 20.566406 23.8125 20.292969 23.628906 C 20.023438 23.445312 19.769531 23.238281 19.539062 23.007812 C 19.304688 22.777344 19.097656 22.523438 18.917969 22.25 C 18.734375 21.980469 18.582031 21.691406 18.457031 21.390625 C 18.332031 21.085938 18.234375 20.773438 18.171875 20.453125 C 18.109375 20.132812 18.074219 19.804688 18.074219 19.480469 C 18.074219 19.152344 18.109375 18.828125 18.171875 18.503906 C 18.234375 18.183594 18.332031 17.871094 18.457031 17.570312 C 18.582031 17.265625 18.734375 16.980469 18.917969 16.707031 C 19.097656 16.433594 19.304688 16.179688 19.539062 15.949219 C 19.769531 15.71875 20.023438 15.511719 20.292969 15.328125 C 20.566406 15.148438 20.855469 14.992188 21.15625 14.867188 C 21.460938 14.742188 21.773438 14.648438 22.09375 14.582031 C 22.414062 14.519531 22.738281 14.488281 23.066406 14.488281 C 23.394531 14.488281 23.71875 14.519531 24.039062 14.582031 C 24.363281 14.648438 24.675781 14.742188 24.976562 14.867188 C 25.28125 14.992188 25.566406 15.148438 25.839844 15.328125 C 26.113281 15.511719 26.363281 15.71875 26.597656 15.949219 C 26.828125 16.179688 27.035156 16.433594 27.214844 16.707031 C 27.398438 16.980469 27.550781 17.265625 27.679688 17.570312 C 27.804688 17.871094 27.898438 18.183594 27.960938 18.503906 C 28.027344 18.828125 28.058594 19.152344 28.058594 19.480469 Z M 28.058594 19.480469 " fill-opacity="1" fill-rule="nonzero"/><path fill="#ffffff" d="M 18.765625 28.148438 L 27.339844 28.148438 L 27.339844 55.730469 L 18.765625 55.730469 Z M 18.765625 28.148438 " fill-opacity="1" fill-rule="nonzero"/><path fill="#ffffff" d="M 32.730469 28.148438 L 40.890625 28.148438 L 40.890625 55.730469 L 32.730469 55.730469 Z M 32.730469 28.148438 " fill-opacity="1" fill-rule="nonzero"/><path fill="#ffffff" d="M 33.085938 42.835938 L 41.246094 42.835938 L 41.246094 55.730469 L 33.085938 55.730469 Z M 33.085938 42.835938 " fill-opacity="1" fill-rule="nonzero"/><path fill="#ffffff" d="M 41.246094 42.835938 C 41.246094 42.835938 41.117188 39.257812 42.0625 37.398438 C 42.0625 37.398438 43.003906 35.105469 45.96875 35.09375 C 45.96875 35.09375 49.449219 34.484375 50.445312 37.9375 C 50.445312 37.9375 50.824219 39.851562 50.824219 40.660156 C 50.824219 41.46875 50.851562 55.734375 50.851562 55.734375 L 59.398438 55.734375 L 59.398438 39.933594 C 59.398438 39.933594 60.019531 31.007812 54.660156 28.5625 C 54.660156 28.5625 45.851562 24.609375 41.070312 31.871094 C 41.070312 31.871094 40.03125 32.589844 39.886719 30.578125 C 39.742188 28.5625 38.519531 33.667969 38.484375 33.777344 C 38.449219 33.882812 39.886719 43.949219 39.886719 43.949219 Z M 41.246094 42.835938 " fill-opacity="1" fill-rule="nonzero"/></svg>