<svg xmlns="http://www.w3.org/2000/svg" xmlns:xlink="http://www.w3.org/1999/xlink" width="100" zoomAndPan="magnify" viewBox="0 0 75 74.999997" height="100" preserveAspectRatio="xMidYMid meet" version="1.0"><defs><clipPath id="e0a8091042"><path d="M 2.808594 2.808594 L 72.191406 2.808594 L 72.191406 72.191406 L 2.808594 72.191406 Z M 2.808594 2.808594 " clip-rule="nonzero"/></clipPath><clipPath id="0e82173cec"><path d="M 37.5 2.808594 C 18.339844 2.808594 2.808594 18.339844 2.808594 37.5 C 2.808594 56.660156 18.339844 72.191406 37.5 72.191406 C 56.660156 72.191406 72.191406 56.660156 72.191406 37.5 C 72.191406 18.339844 56.660156 2.808594 37.5 2.808594 " clip-rule="nonzero"/></clipPath></defs><g clip-path="url(#e0a8091042)"><g clip-path="url(#0e82173cec)"><path fill="#ffffff" d="M 2.808594 2.808594 L 72.191406 2.808594 L 72.191406 72.191406 L 2.808594 72.191406 Z M 2.808594 2.808594 " fill-opacity="1" fill-rule="nonzero"/></g></g><path fill="#7f97ff" d="M 37.5 0 C 16.789062 0 0 16.789062 0 37.5 C 0 52.851562 9.234375 66.042969 22.445312 71.84375 C 22.339844 69.222656 22.425781 66.082031 23.097656 63.230469 C 23.820312 60.1875 27.921875 42.800781 27.921875 42.800781 C 27.921875 42.800781 26.726562 40.40625 26.726562 36.867188 C 26.726562 31.308594 29.945312 27.160156 33.957031 27.160156 C 37.367188 27.160156 39.015625 29.722656 39.015625 32.789062 C 39.015625 36.21875 36.828125 41.347656 35.703125 46.097656 C 34.765625 50.074219 37.699219 53.320312 41.621094 53.320312 C 48.726562 53.320312 53.511719 44.195312 53.511719 33.382812 C 53.511719 25.164062 47.976562 19.011719 37.910156 19.011719 C 26.535156 19.011719 19.449219 27.496094 19.449219 36.96875 C 19.449219 40.238281 20.410156 42.542969 21.921875 44.324219 C 22.613281 45.144531 22.710938 45.472656 22.460938 46.414062 C 22.28125 47.105469 21.867188 48.765625 21.695312 49.425781 C 21.445312 50.375 20.675781 50.714844 19.816406 50.363281 C 14.578125 48.222656 12.136719 42.488281 12.136719 36.039062 C 12.136719 25.386719 21.121094 12.613281 38.9375 12.613281 C 53.253906 12.613281 62.675781 22.972656 62.675781 34.09375 C 62.675781 48.804688 54.5 59.792969 42.445312 59.792969 C 38.394531 59.792969 34.589844 57.605469 33.285156 55.117188 C 33.285156 55.117188 31.105469 63.757812 30.644531 65.425781 C 29.851562 68.316406 28.292969 71.207031 26.871094 73.460938 C 30.246094 74.453125 33.808594 74.996094 37.5 74.996094 C 58.207031 74.996094 74.996094 58.207031 74.996094 37.5 C 74.996094 16.789062 58.207031 0 37.5 0 Z M 37.5 0 " fill-opacity="1" fill-rule="nonzero"/></svg>